<svg xmlns="http://www.w3.org/2000/svg" width="632.794" height="689.929" viewBox="0 0 632.794 689.929"><g id="Group_17598" data-name="Group 17598" transform="translate(-215 -1896)"><path id="blob_2_" data-name="blob (2)" d="M382.356-18.079C434.784,22.566,473.013,85.833,489.4,156.77c16.02,70.936,9.83,149.925-24.03,212.426s-95.39,108.9-161.29,127.3c-65.535,18.789-135.8,9.969-188.232-21.856C63.053,442.432,27.736,387.6-7.944,329.318c-35.68-57.9-71.361-119.25-66.992-177.916C-70.567,93.119-25.784,37.137,26.644-3.125c52.428-40.645,112.138-65.952,175.125-69.4C264.756-76.362,330.291-58.34,382.356-18.079Z" transform="translate(290.3 1969.031)" fill="#ffa24c"></path><path id="Path_910" data-name="Path 910" d="M183.326,104.692C183.326,46.872,142.287,0,91.663,0S0,46.872,0,104.692" transform="translate(844.141 2585.929) rotate(-178)" fill="#61a2ef"></path></g></svg>