<svg xmlns="http://www.w3.org/2000/svg" width="160.076" height="77.308" viewBox="0 0 160.076 77.308"><g id="Group_4" data-name="Group 4" transform="translate(-375.032 -181.446)"><g id="Group_3" data-name="Group 3" transform="translate(419 181.446)"><g id="paw-print-"><g id="Group_2" data-name="Group 2" transform="translate(0 0)"><path id="Path_7" data-name="Path 7" d="M82.658,43.686c3.6,0,6.521-3.925,6.521-8.751s-2.925-8.752-6.521-8.752-6.52,3.926-6.52,8.752S79.063,43.686,82.658,43.686Z" transform="translate(-67.352 -26.184)" fill="#ffa24c"></path><path id="Path_8" data-name="Path 8" d="M92.469,194.939a3.376,3.376,0,0,1-.33-.5c-1.458-3.121-5.455-6.8-11.93-6.892H79.96c-6.376,0-10.342,3.485-11.93,6.747a2.529,2.529,0,0,1-.3.41,5.437,5.437,0,0,0-.429.563,11.462,11.462,0,0,0-1.924,6.612A6.3,6.3,0,0,0,68.1,207.1a3.9,3.9,0,0,0,2.137.643c1.554,0,2.976-.875,4.625-1.889a23.666,23.666,0,0,1,3.333-1.811,7.522,7.522,0,0,1,1.59-.112,9.608,9.608,0,0,1,2.01.152,21.982,21.982,0,0,1,3.2,1.854c1.529,1.008,2.972,1.958,4.538,1.958a3.885,3.885,0,0,0,1.938-.527c3.391-1.926,4.036-7.211,1.441-11.78A6.483,6.483,0,0,0,92.469,194.939Z" transform="translate(-57.823 -168.924)" fill="#ffa24c"></path><path id="Path_9" data-name="Path 9" d="M202.806,43.686c3.594,0,6.52-3.925,6.52-8.751s-2.925-8.752-6.52-8.752-6.521,3.926-6.521,8.752S199.21,43.686,202.806,43.686Z" transform="translate(-173.635 -26.184)" fill="#ffa24c"></path><path id="Path_10" data-name="Path 10" d="M306.212,138.918c-2.882,0-5.138,2.989-5.138,6.8s2.257,6.8,5.138,6.8,5.139-2.989,5.139-6.8S309.093,138.918,306.212,138.918Z" transform="translate(-266.332 -125.909)" fill="#ffa24c"></path><path id="Path_11" data-name="Path 11" d="M10.276,145.723c0-3.816-2.257-6.8-5.138-6.8S0,141.907,0,145.723s2.257,6.8,5.138,6.8S10.276,149.536,10.276,145.723Z" transform="translate(0 -125.909)" fill="#ffa24c"></path></g></g><g id="paw-print--2" data-name="paw-print-" transform="translate(52.163 17.342) rotate(30)"><g id="Group_2-2" data-name="Group 2" transform="translate(0)"><path id="Path_7-2" data-name="Path 7" d="M3.347,8.984c1.846,0,3.347-2.015,3.347-4.492S5.193,0,3.347,0,0,2.015,0,4.492,1.5,8.984,3.347,8.984Z" transform="translate(4.51)" fill="#ffa24c"></path><path id="Path_8-2" data-name="Path 8" d="M13.913,3.8a1.734,1.734,0,0,1-.17-.258A6.694,6.694,0,0,0,7.619,0H7.492A6.581,6.581,0,0,0,1.368,3.463a1.3,1.3,0,0,1-.156.21,2.791,2.791,0,0,0-.22.289A5.884,5.884,0,0,0,.005,7.356,3.235,3.235,0,0,0,1.4,10.04a2,2,0,0,0,1.1.33A4.8,4.8,0,0,0,4.873,9.4a12.153,12.153,0,0,1,1.711-.93A3.859,3.859,0,0,1,7.4,8.413a4.928,4.928,0,0,1,1.032.078,11.283,11.283,0,0,1,1.644.952,4.525,4.525,0,0,0,2.329,1.005,1.994,1.994,0,0,0,.995-.27c1.74-.989,2.072-3.7.739-6.047A3.327,3.327,0,0,0,13.913,3.8Z" transform="translate(3.872 9.558)" fill="#ffa24c"></path><path id="Path_9-2" data-name="Path 9" d="M3.347,8.984c1.845,0,3.347-2.015,3.347-4.492S5.192,0,3.347,0,0,2.015,0,4.492,1.5,8.984,3.347,8.984Z" transform="translate(11.627)" fill="#ffa24c"></path><path id="Path_10-2" data-name="Path 10" d="M2.637,0C1.158,0,0,1.534,0,3.493S1.158,6.985,2.637,6.985,5.275,5.451,5.275,3.493,4.116,0,2.637,0Z" transform="translate(17.834 6.678)" fill="#ffa24c"></path><path id="Path_11-2" data-name="Path 11" d="M5.275,3.493C5.275,1.534,4.116,0,2.637,0S0,1.534,0,3.493,1.159,6.985,2.637,6.985,5.275,5.451,5.275,3.493Z" transform="translate(0 6.678)" fill="#ffa24c"></path></g></g></g><path id="Path_2647" data-name="Path 2647" d="M-77.756-18.7l-2.1-.364V-20.8h4.228q.588,0,1.82-.056,1.624-.112,2.94-.112a12.122,12.122,0,0,1,4.606.714,4.644,4.644,0,0,1,2.408,2.044,7.089,7.089,0,0,1,.714,3.374,6.971,6.971,0,0,1-2.2,5.488,8.83,8.83,0,0,1-6.09,1.96,20.179,20.179,0,0,1-2.212-.084V-1.96l3.752.28V0h-10.08V-1.68l2.212-.28Zm4.088,9.436a11.684,11.684,0,0,0,2.184.14,3.794,3.794,0,0,0,3.01-1.3,6.567,6.567,0,0,0,1.134-4.326,4.861,4.861,0,0,0-1.022-3.43,4.113,4.113,0,0,0-3.122-1.078,12.29,12.29,0,0,0-1.624.112,4.546,4.546,0,0,1-.56.056Zm12.04,4.9A4.108,4.108,0,0,1-59.066-8.2,14.989,14.989,0,0,1-52.444-9.52v-.644a5.354,5.354,0,0,0-.238-1.792,1.727,1.727,0,0,0-.868-.966,4.139,4.139,0,0,0-1.834-.322,8.057,8.057,0,0,0-2.464.35,18.252,18.252,0,0,0-2.268.91l-.868-1.792a7.411,7.411,0,0,1,1.414-.868,12.73,12.73,0,0,1,2.366-.882,10.6,10.6,0,0,1,2.828-.378,8.252,8.252,0,0,1,3.374.56,3.387,3.387,0,0,1,1.75,1.792,8.479,8.479,0,0,1,.532,3.3V-1.68h1.512V-.112a15.637,15.637,0,0,1-1.6.28,13.8,13.8,0,0,1-1.82.14A2.043,2.043,0,0,1-51.9.028,1.518,1.518,0,0,1-52.22-1.12v-.756A7.566,7.566,0,0,1-54.18-.364,5.477,5.477,0,0,1-56.9.308a5.16,5.16,0,0,1-2.366-.546,4.23,4.23,0,0,1-1.722-1.6A4.755,4.755,0,0,1-61.628-4.368ZM-55.1-2.016a3.265,3.265,0,0,0,1.344-.35,5.243,5.243,0,0,0,1.316-.854V-7.812a6.709,6.709,0,0,0-3.766.854,2.571,2.571,0,0,0-1.246,2.2,2.961,2.961,0,0,0,.63,2.044A2.2,2.2,0,0,0-55.1-2.016Zm7.98-13.524H-39.9v1.6l-1.96.336,2.072,7.448.672,3.052.616-3.08,2.52-9.352h3.388l2.772,9.352.672,3.08.672-3.052,1.96-7.42-2.044-.364v-1.6h5.992v1.6L-24-13.636-28.252.224h-3.22L-34.3-8.848l-.644-3.332-.5,3.332-2.6,9.072H-41.3l-4.48-13.86-1.344-.308Zm23.52,0h7.224v1.6l-1.96.336,2.072,7.448.672,3.052.616-3.08,2.52-9.352h3.388L-6.3-6.188l.672,3.08.672-3.052L-3-13.58l-2.044-.364v-1.6H.952v1.6l-1.428.308L-4.732.224h-3.22L-10.78-8.848l-.644-3.332-.5,3.332-2.6,9.072H-17.78l-4.48-13.86-1.344-.308ZM8.624.308a6.75,6.75,0,0,1-5.5-2.17A8.977,8.977,0,0,1,1.316-7.784a9.539,9.539,0,0,1,.938-4.368A6.635,6.635,0,0,1,4.9-14.98a7.792,7.792,0,0,1,3.948-.98,5.933,5.933,0,0,1,4.312,1.47A5.746,5.746,0,0,1,14.728-10.3,12.283,12.283,0,0,1,14.5-7.56H5.4A6.863,6.863,0,0,0,6.608-3.6,3.7,3.7,0,0,0,9.716-2.184a7.524,7.524,0,0,0,2.254-.364A6.112,6.112,0,0,0,13.8-3.416l.7,1.54a6.873,6.873,0,0,1-2.45,1.5A9.068,9.068,0,0,1,8.624.308ZM10.808-9.24q.056-.784.056-1.2,0-3.724-2.492-3.724a2.44,2.44,0,0,0-2.128,1.092A7.5,7.5,0,0,0,5.4-9.24Zm7.784-11.228-2.072-.364v-1.512l5.18-.616h.056l.756.532V-1.9l2.044.224V0H16.632V-1.68l1.96-.252Zm9.828,7.084H26.068v-1.568l2.352-.56v-1.232a6.064,6.064,0,0,1,.966-3.332,6.954,6.954,0,0,1,2.59-2.394,7.111,7.111,0,0,1,3.444-.882,5.631,5.631,0,0,1,1.792.28v3.584a3.029,3.029,0,0,0-1.106-.56,5.327,5.327,0,0,0-1.722-.28,1.937,1.937,0,0,0-1.554.546,2.907,2.907,0,0,0-.462,1.862v2.38h3.556v2.156H32.368V-1.9l2.94.224V0h-9.1V-1.68l2.212-.252ZM37.6-4.368A4.108,4.108,0,0,1,40.166-8.2,14.989,14.989,0,0,1,46.788-9.52v-.644a5.354,5.354,0,0,0-.238-1.792,1.727,1.727,0,0,0-.868-.966,4.139,4.139,0,0,0-1.834-.322,8.057,8.057,0,0,0-2.464.35,18.252,18.252,0,0,0-2.268.91l-.868-1.792a7.411,7.411,0,0,1,1.414-.868,12.73,12.73,0,0,1,2.366-.882,10.6,10.6,0,0,1,2.828-.378,8.252,8.252,0,0,1,3.374.56,3.387,3.387,0,0,1,1.75,1.792,8.479,8.479,0,0,1,.532,3.3V-1.68h1.512V-.112a15.637,15.637,0,0,1-1.6.28,13.8,13.8,0,0,1-1.82.14,2.043,2.043,0,0,1-1.274-.28,1.518,1.518,0,0,1-.322-1.148v-.756a7.566,7.566,0,0,1-1.96,1.512,5.477,5.477,0,0,1-2.716.672A5.16,5.16,0,0,1,39.97-.238a4.23,4.23,0,0,1-1.722-1.6A4.755,4.755,0,0,1,37.6-4.368Zm6.524,2.352a3.265,3.265,0,0,0,1.344-.35,5.243,5.243,0,0,0,1.316-.854V-7.812a6.709,6.709,0,0,0-3.766.854,2.571,2.571,0,0,0-1.246,2.2,2.961,2.961,0,0,0,.63,2.044A2.2,2.2,0,0,0,44.128-2.016Zm9.632.364,1.848-.224V-12.908l-1.792-.5v-1.932l4.34-.588h.084l.7.56v.616l-.084,2.268h.084a4.627,4.627,0,0,1,.924-1.386A7.1,7.1,0,0,1,61.7-15.33a4.756,4.756,0,0,1,2.394-.63,3.031,3.031,0,0,1,1.064.168v4.2a3.475,3.475,0,0,0-2.044-.588,5.912,5.912,0,0,0-3.556,1.092V-1.9l3.248.252V0H53.76ZM74,.308a6.75,6.75,0,0,1-5.5-2.17A8.977,8.977,0,0,1,66.7-7.784a9.539,9.539,0,0,1,.938-4.368A6.635,6.635,0,0,1,70.28-14.98a7.792,7.792,0,0,1,3.948-.98,5.933,5.933,0,0,1,4.312,1.47A5.746,5.746,0,0,1,80.108-10.3a12.283,12.283,0,0,1-.224,2.744h-9.1a6.863,6.863,0,0,0,1.2,3.962A3.7,3.7,0,0,0,75.1-2.184a7.524,7.524,0,0,0,2.254-.364,6.112,6.112,0,0,0,1.834-.868l.7,1.54a6.873,6.873,0,0,1-2.45,1.5A9.068,9.068,0,0,1,74,.308ZM76.188-9.24q.056-.784.056-1.2,0-3.724-2.492-3.724a2.44,2.44,0,0,0-2.128,1.092,7.5,7.5,0,0,0-.84,3.836Z" transform="translate(455 258.446)" fill="#000400"></path></g></svg>