<svg xmlns="http://www.w3.org/2000/svg" width="168" height="85" viewBox="0 0 168 85"><g transform="translate(1)"><g transform="translate(47)"><g transform="translate(0 0)"><path d="M82.658,43.686c3.6,0,6.521-3.925,6.521-8.751s-2.925-8.752-6.521-8.752-6.52,3.926-6.52,8.752S79.063,43.686,82.658,43.686Z" transform="translate(-67.352 -26.184)" fill="#fff"></path><path d="M92.469,194.939a3.376,3.376,0,0,1-.33-.5c-1.458-3.121-5.455-6.8-11.93-6.892H79.96c-6.376,0-10.342,3.485-11.93,6.747a2.529,2.529,0,0,1-.3.41,5.437,5.437,0,0,0-.429.563,11.462,11.462,0,0,0-1.924,6.612A6.3,6.3,0,0,0,68.1,207.1a3.9,3.9,0,0,0,2.137.643c1.554,0,2.976-.875,4.625-1.889a23.666,23.666,0,0,1,3.333-1.811,7.522,7.522,0,0,1,1.59-.112,9.608,9.608,0,0,1,2.01.152,21.982,21.982,0,0,1,3.2,1.854c1.529,1.008,2.972,1.958,4.538,1.958a3.885,3.885,0,0,0,1.938-.527c3.391-1.926,4.036-7.211,1.441-11.78A6.483,6.483,0,0,0,92.469,194.939Z" transform="translate(-57.823 -168.924)" fill="#fff"></path><path d="M202.806,43.686c3.594,0,6.52-3.925,6.52-8.751s-2.925-8.752-6.52-8.752-6.521,3.926-6.521,8.752S199.21,43.686,202.806,43.686Z" transform="translate(-173.635 -26.184)" fill="#fff"></path><path d="M306.212,138.918c-2.882,0-5.138,2.989-5.138,6.8s2.257,6.8,5.138,6.8,5.139-2.989,5.139-6.8S309.093,138.918,306.212,138.918Z" transform="translate(-266.332 -125.909)" fill="#fff"></path><path d="M10.276,145.723c0-3.816-2.257-6.8-5.138-6.8S0,141.907,0,145.723s2.257,6.8,5.138,6.8S10.276,149.536,10.276,145.723Z" transform="translate(0 -125.909)" fill="#fff"></path></g><g transform="translate(52.163 17.342) rotate(30)"><g transform="translate(0)"><path d="M3.347,8.984c1.846,0,3.347-2.015,3.347-4.492S5.193,0,3.347,0,0,2.015,0,4.492,1.5,8.984,3.347,8.984Z" transform="translate(4.51)" fill="#fff"></path><path d="M13.913,3.8a1.734,1.734,0,0,1-.17-.258A6.694,6.694,0,0,0,7.619,0H7.492A6.581,6.581,0,0,0,1.368,3.463a1.3,1.3,0,0,1-.156.21,2.791,2.791,0,0,0-.22.289A5.884,5.884,0,0,0,.005,7.356,3.235,3.235,0,0,0,1.4,10.04a2,2,0,0,0,1.1.33A4.8,4.8,0,0,0,4.873,9.4a12.153,12.153,0,0,1,1.711-.93A3.859,3.859,0,0,1,7.4,8.413a4.928,4.928,0,0,1,1.032.078,11.283,11.283,0,0,1,1.644.952,4.525,4.525,0,0,0,2.329,1.005,1.994,1.994,0,0,0,.995-.27c1.74-.989,2.072-3.7.739-6.047A3.327,3.327,0,0,0,13.913,3.8Z" transform="translate(3.872 9.558)" fill="#fff"></path><path d="M3.347,8.984c1.845,0,3.347-2.015,3.347-4.492S5.192,0,3.347,0,0,2.015,0,4.492,1.5,8.984,3.347,8.984Z" transform="translate(11.627)" fill="#fff"></path><path d="M2.637,0C1.158,0,0,1.534,0,3.493S1.158,6.985,2.637,6.985,5.275,5.451,5.275,3.493,4.116,0,2.637,0Z" transform="translate(17.834 6.678)" fill="#fff"></path><path d="M5.275,3.493C5.275,1.534,4.116,0,2.637,0S0,1.534,0,3.493,1.159,6.985,2.637,6.985,5.275,5.451,5.275,3.493Z" transform="translate(0 6.678)" fill="#fff"></path></g></g></g><text transform="translate(83 77)" fill="#fff" font-size="28" font-family="Merriweather-Bold, Merriweather" font-weight="700"><tspan x="-83.07" y="0">Pawwelfare</tspan></text></g></svg>